<!-- Generator: Adobe Illustrator 18.1.1, SVG Export Plug-In  -->
<svg version="1.1"
   xmlns="http://www.w3.org/2000/svg" xmlns:xlink="http://www.w3.org/1999/xlink" xmlns:a="http://ns.adobe.com/AdobeSVGViewerExtensions/3.0/"
   x="0px" y="0px" width="128.7px" height="37.9px" viewBox="0 0 128.7 37.9" enable-background="new 0 0 128.7 37.9"
   xml:space="preserve">
<defs>
</defs>
<path fill="#FFFFFF" d="M15.2,12.5C12.7,30,12,35.6,12,35.6c-7-0.4-9.2-0.3-9.2-0.3C1.2,12.9,0,1.2,0,1.2L7.6,1
  C8,19.2,8.4,27.7,8.4,27.7c3.1-21.3,3.6-24.8,3.6-24.8c4-0.1,6.4,0.2,6.4,0.2c1.6,13.8,2.9,23.1,3.5,27.6C22.8,7.2,22.8,0,22.8,0
  c4.1,0.2,7.5,0.2,7.5,0.2c-2.1,24.6-3,37.4-3,37.4c-7.2,0.4-9.9,0.3-9.9,0.3C16.5,26.4,15.7,18,15.2,12.5z"/>
<path fill="#FFFFFF" d="M30.8,23.3c0-7.4,2.6-13.2,9.4-13.2c7.6,0,9.6,6.6,9,15.3c0,0-4.5,0.1-11.3,0.2c0.2,4.6,0.9,6.6,2.4,6.6
  c1.3,0,2-1.5,2.1-4.7c0,0,3.5,0.1,7,0.2c-0.6,6-4,9.5-9.2,9.5C32.8,37.1,30.8,31.3,30.8,23.3z M37.9,21.5c1.4,0,2.8-0.1,4.2-0.1
  c0.1-4.2-0.5-6.7-2-6.7C38.7,14.8,38.1,17.1,37.9,21.5z"/>
<path fill="#FFFFFF" d="M73.3,37.4c0,0,0.1-1.8,0.1-4.5c-1,2.7-3.1,3.9-5.5,3.9c-4.7,0-7.8-4.1-7.8-13.5c0-7.5,2.1-13.2,7.4-13.2
  c2.1,0,3.7,1.3,4.7,3.1c-0.1-2.8-0.2-6.8-0.4-12.2c0,0,1.5,0.1,7.2-0.1c0,0-0.2,16.3-0.1,36.6C79,37.5,76.9,37.4,73.3,37.4z
   M72.1,23.7c0-5.9-0.8-8.7-2.3-8.7c-1.4,0-2.1,3-2.1,8.5c0,6.1,0.8,8.6,2.2,8.6C71.1,32.2,72.1,30.5,72.1,23.7z"/>
<path fill="#FFFFFF" d="M100.4,24.2c0,7.9-3.4,12.9-9.6,12.9c-6.1,0-9.6-5-9.6-13.2c0-8.4,3.7-13.4,9.7-13.4
  C96.9,10.7,100.4,15.4,100.4,24.2z M88.6,24.1c0,6.2,0.9,8.4,2.3,8.4c1.3,0,2.2-2,2.2-8.1c0-6.6-0.7-8.9-2.3-8.9
  C89.3,15.4,88.6,18.1,88.6,24.1z"/>
<path fill="#FFFFFF" d="M99,23.2c0-7.7,3-13.2,9.5-13.2c6.8,0,9.5,5.6,9.5,13.4c0,9.6-3.4,13.6-9.6,13.6C101.2,37.1,99,31.6,99,23.2
  z M110.7,23.5c0-6-0.6-8.6-2.2-8.6c-1.7,0-2.2,2.7-2.2,8.4c0,7.1,0.6,9.2,2.2,9.2C110,32.4,110.7,30.1,110.7,23.5z"/>
<path fill="#FFFFFF" d="M119.4,32.3c0-2.7,1.7-4.6,4.7-4.6c3.2,0,4.6,2.3,4.6,4.7c0,2.9-1.9,4.6-4.5,4.6
  C121.3,37.1,119.4,35.3,119.4,32.3z M120.1,0.3c0,0,3.1,0.1,7.7,0c0,0-0.4,11.5-0.7,25.4c0,0-2.4-0.1-6,0
  C121.2,25.7,120.8,13,120.1,0.3z"/>
<g>
  <polygon fill="#FFFFFF" points="96.5,9.7 87.7,8.8 87.4,2.4 90.1,6.3 92.6,2.4 94.7,6.7 97.7,3.4  "/>
  <circle fill="#FFFFFF" cx="97.7" cy="3.4" r="0.7"/>
  <circle fill="#FFFFFF" cx="92.6" cy="2.2" r="0.7"/>
  <circle fill="#FFFFFF" cx="87.4" cy="2.4" r="0.7"/>
</g>
<g opacity="0.35">
  <polygon fill="#FFFFFF" points="96.5,10.5 87.7,9.6 87.4,3.2 90.1,7.1 92.6,3.2 94.7,7.5 97.7,4.2   "/>
  <circle fill="#FFFFFF" cx="97.7" cy="4.2" r="0.7"/>
  <circle fill="#FFFFFF" cx="92.6" cy="3" r="0.7"/>
  <circle fill="#FFFFFF" cx="87.4" cy="3.2" r="0.7"/>
</g>
</svg>